# xmcd
#
# Track frame offsets: 
#        150
#        15082
#        29367
#        50423
#        66813
#        78847
#        96645
#        118320
#        137762
#        157272
#        175131
#        197671
#        212668
#
# Disc length: 3037 seconds
#
# Revision: 0
# Processed by: cddbd v1.5.2PL0 Copyright (c) Steve Scherf et al.
# Submitted via: ExactAudioCopy v0.95b4
#
DISCID=b20bdb0d
DTITLE=Various Artist - Pickathon 2002
DYEAR=2002
DGENRE=Bluegrass
TTITLE0=Kevin Burke and Casey Neill - Lucy Cambell and The Jolly Tinker
TTITLE1=Sam Hill - Blue Yodel #4
TTITLE2=Casey Neill and Little Sue - Chinquapin
TTITLE3=Terry Robb - Judge Boushay Blues
TTITLE4=Spigot - Blue Hair
TTITLE5=Dirk Powell, Countney Granger, and Friends - The Waltz of the Gr
TTITLE5=and Road
TTITLE6=Harebrained - Moon and Stars
TTITLE7=Danny Barnes and Dirk Powell - Delilah
TTITLE8=Tony Furtado - Stagger Lee
TTITLE9=Foghorn String Band - June Apple
TTITLE10=Laurie Lewis and Tom Rozum - The Oak and the Laurel
TTITLE11=Circus Contraption - Come to the Circus
TTITLE12=Baby Gramps - I had an old cow, and it slobbered and how. Wha
TTITLE12=t did I do for it? I taught that cow how to spit.
EXTD=
EXTT0=
EXTT1=
EXTT2=
EXTT3=
EXTT4=
EXTT5=
EXTT6=
EXTT7=
EXTT8=
EXTT9=
EXTT10=
EXTT11=
EXTT12=
PLAYORDER=
